<?xml version="1.0" encoding="UTF-8" standalone="no"?>
<svg
   xmlns:dc="http://purl.org/dc/elements/1.1/"
   xmlns:cc="http://creativecommons.org/ns#"
   xmlns:rdf="http://www.w3.org/1999/02/22-rdf-syntax-ns#"
   xmlns:svg="http://www.w3.org/2000/svg"
   xmlns="http://www.w3.org/2000/svg"
   xmlns:sodipodi="http://sodipodi.sourceforge.net/DTD/sodipodi-0.dtd"
   xmlns:inkscape="http://www.inkscape.org/namespaces/inkscape"
   width="90"
   height="90"
   viewBox="0 0 254.00001 253.99999"
   version="1.1"
   id="svg2"
   inkscape:version="0.48.2 r9819"
   sodipodi:docname="AJAX1.svg">
  <metadata
     id="metadata62">
    <rdf:RDF>
      <cc:Work
         rdf:about="">
        <dc:format>image/svg+xml</dc:format>
        <dc:type
           rdf:resource="http://purl.org/dc/dcmitype/StillImage" />
      </cc:Work>
    </rdf:RDF>
  </metadata>
  <defs
     id="defs60" />
  <sodipodi:namedview
     pagecolor="#ffffff"
     bordercolor="#666666"
     borderopacity="1"
     objecttolerance="10"
     gridtolerance="10"
     guidetolerance="10"
     inkscape:pageopacity="0"
     inkscape:pageshadow="2"
     inkscape:window-width="1280"
     inkscape:window-height="1004"
     id="namedview58"
     showgrid="false"
     fit-margin-top="0"
     fit-margin-left="0"
     fit-margin-right="0"
     fit-margin-bottom="0"
     inkscape:zoom="5.0487972"
     inkscape:cx="43.263141"
     inkscape:cy="29.897371"
     inkscape:window-x="-8"
     inkscape:window-y="-8"
     inkscape:window-maximized="1"
     inkscape:current-layer="svg2" />
  <!-- draw the bicycle -->
  <!-- RIGHT -->
  <!-- LANE -->
  <!-- ONLY -->
  <path
     inkscape:connector-curvature="0"
     d="M 250.60806,118.77499 135.22856,3.391955 c -4.52614,-4.52262 -11.92742,-4.52262 -16.45356,0 L 3.3919575,118.77499 c -4.52261,4.52261 -4.52261,11.92389 0,16.45356 L 118.775,250.60805 c 4.52614,4.52261 11.92742,4.52261 16.45356,0 l 115.3795,-115.3795 c 4.52261,-4.52967 4.52261,-11.93095 0,-16.45356"
     style="fill:#ffd033;fill-opacity:1;fill-rule:nonzero;stroke:none"
     id="path3235" />
  <path
     inkscape:connector-curvature="0"
     d="M 248.41342,120.97103 133.03039,5.591515 c -3.31611,-3.31611 -8.74183,-3.31611 -12.05794,0 L 5.5929375,120.97103 c -3.31611,3.31611 -3.31611,8.74183 0,12.05794 L 120.97245,248.412 c 3.31611,3.31611 8.74183,3.31611 12.05794,0 L 248.41342,133.02897 c 3.31611,-3.31611 3.31611,-8.74183 0,-12.05794"
     style="fill:#000000;fill-opacity:1;fill-rule:evenodd;stroke:none"
     id="path3251" />
  <path
     inkscape:connector-curvature="0"
     d="M 245.11319,124.26633 129.73368,8.883295 c -1.50283,-1.4993 -3.96169,-1.4993 -5.46452,0 L 8.8861275,124.26633 c -1.50284,1.50283 -1.50284,3.96522 0,5.46453 L 124.26916,245.11036 c 1.50283,1.50636 3.96169,1.50636 5.46452,0 l 115.37951,-115.3795 c 1.50636,-1.49931 1.50636,-3.9617 0,-5.46453"
     style="fill:#ffd033;fill-opacity:1;fill-rule:evenodd;stroke:none"
     id="path3255" />
  <path
     inkscape:connector-curvature="0"
     d="m 177.28601,110.38278 0.0459,76.52809 -27.22739,0 -0.007,-65.33798 c 0,-4.16277 -3.56658,-6.78744 -6.79097,-6.78744 l -41.81828,0.15875 5.06942,15.28939 c 0.44097,0.80433 0.635,1.76036 0.71614,2.68464 0.26458,2.9845 -2.43064,5.41514 -5.41161,5.41514 -1.397,0 -2.772843,-0.5715 -3.764143,-1.52047 l -46.68661,-35.79637 46.68661,-34.484034 c 0.99131,-0.9525 2.367143,-1.52047 3.764143,-1.52047 2.98097,0 5.81025,2.6282 5.41161,5.41161 -0.13052,0.92075 -0.27164,1.88384 -0.71614,2.68464 l -5.06941,14.76728 53.086,-0.0282 c 12.5095,0 22.71183,10.20233 22.71183,22.708304 l 0,-0.17286 z"
     style="fill:#000000;fill-opacity:1;fill-rule:evenodd;stroke:none"
     id="path3259" />
</svg>
