<?xml version="1.0" encoding="UTF-8" standalone="no"?>
<svg
   xmlns:dc="http://purl.org/dc/elements/1.1/"
   xmlns:cc="http://creativecommons.org/ns#"
   xmlns:rdf="http://www.w3.org/1999/02/22-rdf-syntax-ns#"
   xmlns:svg="http://www.w3.org/2000/svg"
   xmlns="http://www.w3.org/2000/svg"
   xmlns:sodipodi="http://sodipodi.sourceforge.net/DTD/sodipodi-0.dtd"
   xmlns:inkscape="http://www.inkscape.org/namespaces/inkscape"
   width="90.122787"
   height="90.107498"
   viewBox="0 0 254.34657 254.30338"
   version="1.1"
   id="svg2"
   inkscape:version="0.48.2 r9819"
   sodipodi:docname="MUTCD W1-8R.svg">
  <metadata
     id="metadata62">
    <rdf:RDF>
      <cc:Work
         rdf:about="">
        <dc:format>image/svg+xml</dc:format>
        <dc:type
           rdf:resource="http://purl.org/dc/dcmitype/StillImage" />
        <dc:title></dc:title>
      </cc:Work>
    </rdf:RDF>
  </metadata>
  <defs
     id="defs60" />
  <sodipodi:namedview
     pagecolor="#ffffff"
     bordercolor="#666666"
     borderopacity="1"
     objecttolerance="10"
     gridtolerance="10"
     guidetolerance="10"
     inkscape:pageopacity="0"
     inkscape:pageshadow="2"
     inkscape:window-width="1280"
     inkscape:window-height="1004"
     id="namedview58"
     showgrid="false"
     fit-margin-top="0"
     fit-margin-left="0"
     fit-margin-right="0"
     fit-margin-bottom="0"
     inkscape:zoom="6.6107689"
     inkscape:cx="44.170605"
     inkscape:cy="36.067147"
     inkscape:window-x="-8"
     inkscape:window-y="-8"
     inkscape:window-maximized="1"
     inkscape:current-layer="svg2" />
  <!-- draw the bicycle -->
  <!-- RIGHT -->
  <!-- LANE -->
  <!-- ONLY -->
  <path
     inkscape:connector-curvature="0"
     d="M 3.64065,118.32872 118.33225,3.6406524 c 4.8542,-4.85423 12.7988,-4.85423 17.6495,0 L 250.70855,118.32872 c 4.8507,4.85069 4.8507,12.79172 0,17.64595 l -114.7268,114.68807 c -4.8507,4.85422 -12.7953,4.85422 -17.6495,0 L 3.64065,135.97467 c -4.8542,-4.85423 -4.8542,-12.79526 0,-17.64595"
     style="fill:#ffd033;fill-opacity:1;fill-rule:nonzero;stroke:none"
     id="path3625" />
  <path
     inkscape:connector-curvature="0"
     d="M 6.40285,120.15258 120.14905,6.4064324 c 3.8594,-3.84881 10.1564,-3.84881 14.0088,0 L 247.94275,120.15258 c 3.8488,3.84881 3.8488,10.14942 0,13.99822 l -113.7849,113.74616 c -3.8524,3.84881 -10.1494,3.84881 -14.0088,0 L 6.40285,134.1508 c -3.8488,-3.8488 -3.8488,-10.14941 0,-13.99822"
     style="fill:#000000;fill-opacity:1;fill-rule:evenodd;stroke:none"
     id="path3633" />
  <path
     inkscape:connector-curvature="0"
     d="M 9.95885,123.65214 123.65565,9.9589024 c 1.9226,-1.92264 5.073,-1.92264 6.9956,0 L 244.38685,123.65214 c 1.9226,1.92264 1.9226,5.07294 0,6.99911 l -113.7356,113.68971 c -1.9226,1.92617 -5.073,1.92617 -6.9956,0 L 9.95885,130.65125 c -1.9226,-1.92617 -1.9226,-5.07647 0,-6.99911"
     style="fill:#ffd033;fill-opacity:1;fill-rule:evenodd;stroke:none"
     id="path3637" />
  <path
     inkscape:connector-curvature="0"
     d="m 132.95135,106.37308 c 1.0513,3.51014 2.1166,7.0238 3.1714,10.53747 1.1924,3.95464 4.3604,10.91142 9.4686,6.04661 1.39,-1.32291 2.1131,-3.38314 2.9492,-5.06941 1.6334,-3.3267 3.2773,-6.64987 4.9178,-9.98009 6.7945,-13.790078 13.596,-27.580168 20.394,-41.370248 -15.4093,0 -30.8116,-0.004 -46.2174,-0.004 -3.6442,0 -7.2919,-0.003 -10.9326,-0.003 -1.9649,0 -4.1945,-0.21167 -6.096,0.34219 -3.0515,0.88194 -4.9565,4.41678 -2.8504,7.23547 0.9772,1.31939 2.3107,2.51884 3.4184,3.7465 2.6106,2.87867 5.2105,5.75734 7.8105,8.636 -10.6327,4.82953 -20.4823,11.83923 -27.7848,21.014978 -6.6146,-6.61106 -13.2292,-13.225638 -19.8402,-19.836698 -1.2136,-1.21708 -2.4342,-2.43416 -3.6548,-3.6583 -0.829,-0.82903 -1.2347,0.29986 -1.9932,1.0548 -3.3161,3.31964 -6.6322,6.63223 -9.9518,9.94481 5.9654,5.961938 11.9238,11.923888 17.8858,17.882298 2.9527,2.95275 5.902,5.89845 8.8441,8.8512 1.45,1.4358 -0.7161,5.89492 -1.1147,7.90222 -1.1642,5.85611 -1.0055,11.84628 -0.9984,17.78353 0.021,10.67153 0.035,21.34306 0.046,32.01812 0.01,2.7693 0.014,5.53861 0.014,8.30792 0,0.11641 9.0805,0.0564 9.726,0.0564 l 14.3758,0 c 1.6898,0 0.8678,-3.02331 0.8678,-4.41678 0,-10.52689 0,-21.05378 0.01,-31.5842 0.01,-5.93725 -0.3986,-12.06853 0.702,-17.93875 2.5435,-13.66309 15.4975,-21.57942 26.8358,-27.49903"
     style="fill:#000000;fill-opacity:1;fill-rule:evenodd;stroke:none"
     id="path3641" />
</svg>
