<?xml version="1.0" encoding="UTF-8" standalone="no"?>
<svg
   xmlns:dc="http://purl.org/dc/elements/1.1/"
   xmlns:cc="http://creativecommons.org/ns#"
   xmlns:rdf="http://www.w3.org/1999/02/22-rdf-syntax-ns#"
   xmlns:svg="http://www.w3.org/2000/svg"
   xmlns="http://www.w3.org/2000/svg"
   xmlns:sodipodi="http://sodipodi.sourceforge.net/DTD/sodipodi-0.dtd"
   xmlns:inkscape="http://www.inkscape.org/namespaces/inkscape"
   width="90"
   height="89.993645"
   viewBox="0 0 254.00006 253.98205"
   version="1.1"
   id="svg2"
   inkscape:version="0.48.2 r9819"
   sodipodi:docname="AJAX1.svg">
  <metadata
     id="metadata62">
    <rdf:RDF>
      <cc:Work
         rdf:about="">
        <dc:format>image/svg+xml</dc:format>
        <dc:type
           rdf:resource="http://purl.org/dc/dcmitype/StillImage" />
        <dc:title></dc:title>
      </cc:Work>
    </rdf:RDF>
  </metadata>
  <defs
     id="defs60" />
  <sodipodi:namedview
     pagecolor="#ffffff"
     bordercolor="#666666"
     borderopacity="1"
     objecttolerance="10"
     gridtolerance="10"
     guidetolerance="10"
     inkscape:pageopacity="0"
     inkscape:pageshadow="2"
     inkscape:window-width="1280"
     inkscape:window-height="1004"
     id="namedview58"
     showgrid="false"
     fit-margin-top="0"
     fit-margin-left="0"
     fit-margin-right="0"
     fit-margin-bottom="0"
     inkscape:zoom="5.6568543"
     inkscape:cx="46.662167"
     inkscape:cy="38.551963"
     inkscape:window-x="-8"
     inkscape:window-y="-8"
     inkscape:window-maximized="1"
     inkscape:current-layer="svg2" />
  <!-- draw the bicycle -->
  <!-- RIGHT -->
  <!-- LANE -->
  <!-- ONLY -->
  <path
     inkscape:connector-curvature="0"
     d="m 135.22681,250.57459 115.34072,-115.3478 c 2.17311,-2.1625 3.43253,-5.1611 3.43253,-8.2338 0,-3.0657 -1.25942,-6.0643 -3.43253,-8.2339 L 135.22681,3.4113932 C 133.05017,1.2417932 130.0692,-0.00710688 126.98239,-6.8745622e-6 123.91675,0.01399312 120.92167,1.2487932 118.74856,3.4113932 L 3.41137,118.75909 C 1.25237,120.91109 0,123.94139 0,126.99299 c 0,3.0515 1.25237,6.0854 3.41137,8.2338 l 115.33719,115.3478 c 2.79752,2.7975 7.00969,3.9899 10.8585,3.1362 2.2225,-0.5045 3.86997,-1.7286 5.61975,-3.1362"
     style="fill:#ffd033;fill-opacity:1;fill-rule:nonzero;stroke:none"
     id="path6190" />
  <path
     inkscape:connector-curvature="0"
     d="M 121.05784,248.26779 5.72065,132.92709 c -1.56633,-1.5734 -2.45886,-3.7218 -2.45886,-5.9338 0,-2.2119 0.89253,-4.3532 2.45886,-5.9266 L 121.05784,5.7047932 c 1.55575,-1.5487 3.73592,-2.4307 5.93019,-2.4307 2.19428,0 4.37092,0.882 5.92667,2.4307 L 248.28012,121.06669 c 1.54869,1.5592 2.43417,3.7288 2.43417,5.9266 0,2.1978 -0.88548,4.3745 -2.43417,5.9338 L 132.9147,248.26779 c -1.56986,1.5628 -3.71475,2.4518 -5.92667,2.4518 -2.21191,0 -4.36033,-0.889 -5.93019,-2.4518"
     style="fill:#000000;fill-opacity:1;fill-rule:evenodd;stroke:none"
     id="path6198" />
  <path
     inkscape:connector-curvature="0"
     d="m 124.28257,245.05039 c 0.70203,0.7091 1.7145,1.1219 2.7058,1.1219 0.98073,0 2.02142,-0.4128 2.71992,-1.1219 l 115.34425,-115.3477 c 0.6985,-0.7021 1.11125,-1.7181 1.11125,-2.7094 0,-0.9772 -0.41275,-2.0179 -1.11125,-2.7199 L 129.70829,8.9291932 c -0.71261,-0.7021 -1.72156,-1.0936 -2.71992,-1.0936 -0.99836,0.01 -1.99319,0.3915 -2.7058,1.0936 L 8.92421,124.27339 c -0.6985,0.702 -1.11478,1.7427 -1.11478,2.7199 0,0.9913 0.41628,2.0073 1.11478,2.7094 l 115.35836,115.3477 z"
     style="fill:#ffd033;fill-opacity:1;fill-rule:evenodd;stroke:none"
     id="path6202" />
  <path
     d="m 95.925409,41.131259 62.152401,0 0,170.903241 -62.152401,0 0,-170.903241 z"
     style="fill:#000000;fill-opacity:1;fill-rule:evenodd;stroke:none"
     id="path6288"
     inkscape:connector-curvature="0" />
  <path
     d="m 126.94799,49.229275 c 12.83758,0 23.3045,10.466919 23.3045,23.300978 0,12.837586 -10.46692,23.304505 -23.3045,23.304505 -12.83759,0 -23.30804,-10.466919 -23.30804,-23.304505 0,-12.834059 10.47045,-23.300978 23.30804,-23.300978"
     style="fill:#c4122e;fill-opacity:1;fill-rule:evenodd;stroke:none"
     id="path6292"
     inkscape:connector-curvature="0" />
  <path
     d="m 126.91977,103.29989 c 12.83758,0 23.3045,10.47045 23.3045,23.30451 0,12.83758 -10.46692,23.30451 -23.3045,23.30451 -12.83759,0 -23.30451,-10.46693 -23.30451,-23.30451 0,-12.83406 10.46692,-23.30451 23.30451,-23.30451"
     style="fill:#ffd033;fill-opacity:1;fill-rule:evenodd;stroke:none"
     id="path6296"
     inkscape:connector-curvature="0" />
  <path
     d="m 126.94799,157.84605 c 12.83758,0 23.3045,10.47398 23.3045,23.30451 0,12.83406 -10.46692,23.30803 -23.3045,23.30803 -12.83759,0 -23.30804,-10.47397 -23.30804,-23.30803 0,-12.83053 10.47045,-23.30451 23.30804,-23.30451"
     style="fill:#00674c;fill-opacity:1;fill-rule:evenodd;stroke:none"
     id="path6300"
     inkscape:connector-curvature="0" />
</svg>
