<?xml version="1.0" encoding="UTF-8" standalone="no"?>
<!-- Generator: Adobe Illustrator 13.0.0, SVG Export Plug-In  -->

<svg
   xmlns:dc="http://purl.org/dc/elements/1.1/"
   xmlns:cc="http://creativecommons.org/ns#"
   xmlns:rdf="http://www.w3.org/1999/02/22-rdf-syntax-ns#"
   xmlns:svg="http://www.w3.org/2000/svg"
   xmlns="http://www.w3.org/2000/svg"
   xmlns:sodipodi="http://sodipodi.sourceforge.net/DTD/sodipodi-0.dtd"
   xmlns:inkscape="http://www.inkscape.org/namespaces/inkscape"
   version="1.1"
   x="0px"
   y="0px"
   width="575.93823"
   height="507.34375"
   viewBox="-0.525 -0.67 575.93823 507.34375"
   enable-background="new -0.525 -0.67 576 508"
   xml:space="preserve"
   id="svg2"
   inkscape:version="0.48.2 r9819"
   sodipodi:docname="AJAX1.svg"><metadata
   id="metadata14"><rdf:RDF><cc:Work
       rdf:about=""><dc:format>image/svg+xml</dc:format><dc:type
         rdf:resource="http://purl.org/dc/dcmitype/StillImage" /></cc:Work></rdf:RDF></metadata><sodipodi:namedview
   pagecolor="#ffffff"
   bordercolor="#666666"
   borderopacity="1"
   objecttolerance="10"
   gridtolerance="10"
   guidetolerance="10"
   inkscape:pageopacity="0"
   inkscape:pageshadow="2"
   inkscape:window-width="1280"
   inkscape:window-height="1004"
   id="namedview12"
   showgrid="false"
   fit-margin-top="0"
   fit-margin-left="0"
   fit-margin-right="0"
   fit-margin-bottom="0"
   inkscape:zoom="1.3139937"
   inkscape:cx="241.86632"
   inkscape:cy="315.65577"
   inkscape:window-x="-8"
   inkscape:window-y="-8"
   inkscape:window-maximized="1"
   inkscape:current-layer="svg2" />
<defs
   id="defs4">
</defs>
<path
   d="m 570.26105,46.7735 -256.011,443.424 c -5.531,9.58 -15.753,15.482 -26.815,15.482 -11.062,0 -21.284,-5.902 -26.815,-15.482 L 4.6070616,46.7735 c -5.53100005,-9.581 -5.53100005,-21.384 0,-30.964 C 10.138059,6.2295 20.361059,0.3275 31.424059,0.3275 H 543.44505 c 11.063,0 21.285,5.901 26.816,15.482 5.531,9.581 5.531,21.384 0,30.964 z"
   id="path6"
   style="fill:#ffffff;stroke:#000000;stroke-width:2;stroke-linecap:round;stroke-linejoin:round;stroke-miterlimit:4;stroke-opacity:1;stroke-dasharray:none"
   inkscape:connector-curvature="0" />
<path
   d="m 15.289059,40.5025 256.100991,443.58 c 3.31,5.732 9.426,9.264 16.044,9.264 6.619,0 12.735,-3.531 16.045,-9.264 l 256.101,-443.58 c 3.31,-5.732 3.31,-12.794 0,-18.526 -3.31,-5.732 -9.425,-9.263 -16.044,-9.263 H 31.333059 c -6.619,0 -12.735,3.531 -16.044,9.263 -3.31,5.732 -3.31,12.794 0,18.526 z"
   id="path8"
   style="fill:#c50000;fill-opacity:1;stroke:none"
   inkscape:connector-curvature="0" />
<polygon
   points="287.475,400.678 95.732,68.569 479.219,68.569 "
   id="polygon10"
   style="fill:#ffffff;stroke:none"
   transform="translate(-0.04093845,-0.1725)" />
</svg>